<?xml version="1.0" encoding="utf-8"?>
<!-- Generator: Adobe Illustrator 16.0.3, SVG Export Plug-In . SVG Version: 6.00 Build 0)  -->
<!DOCTYPE svg PUBLIC "-//W3C//DTD SVG 1.1//EN" "http://www.w3.org/Graphics/SVG/1.1/DTD/svg11.dtd">
<svg version="1.1" id="Layer_1" xmlns="http://www.w3.org/2000/svg" xmlns:xlink="http://www.w3.org/1999/xlink" x="0px" y="0px"
	 width="641px" height="422px" viewBox="-4.5 -389.5 641 422" enable-background="new -4.5 -389.5 641 422" xml:space="preserve">
<path id="Cloud" fill="none" stroke="#000000" stroke-width="7" stroke-miterlimit="10" d="M531.454-215.962
	c0.522-4.703,0.711-9.499,0.711-14.308c0-83.76-67.866-151.602-151.601-151.602c-64.988,0-120.265,40.944-141.833,98.458
	c-14.284-15.669-34.654-25.689-57.537-25.689c-43.123,0-78.076,34.928-78.076,78.075c0,5.104,0.534,10.044,1.505,14.876
	C47.086-206.666,3.062-157.051,3.062-96.908c0,67.061,54.28,121.282,121.282,121.282h385.082
	c66.988,0,121.279-54.222,121.279-121.282C630.705-156.317,587.878-205.529,531.454-215.962z"/>
<g id="data">
	<path d="M117.839-146.002c-26.57,0-55.156,8.011-55.156,25.608v74.854c0,17.591,28.586,25.608,55.156,25.608
		c26.565,0,55.155-8.018,55.155-25.608v-74.854C172.995-137.991,144.401-146.002,117.839-146.002z M165.115-45.54
		c0,9.788-21.168,17.729-47.276,17.729c-26.111,0-47.276-7.94-47.276-17.729v-14.719c8.139,8.387,27.774,12.75,47.276,12.75
		s39.135-4.363,47.276-12.75V-45.54L165.115-45.54z M165.115-69.177h-0.015c0,0.037,0.015,0.084,0.015,0.123
		c0,9.726-21.168,17.605-47.276,17.605s-47.276-7.88-47.276-17.605c0-0.039,0.016-0.086,0.016-0.123h-0.016v-14.718
		c8.139,8.385,27.774,12.748,47.276,12.748s39.135-4.363,47.276-12.748V-69.177L165.115-69.177z M165.115-92.816h-0.015
		c0,0.038,0.015,0.083,0.015,0.123c0,9.727-21.168,17.605-47.276,17.605s-47.276-7.879-47.276-17.605
		c0-0.04,0.016-0.085,0.016-0.123h-0.016v-13.536c10.326,7.867,29.251,11.567,47.276,11.567s36.95-3.698,47.276-11.567V-92.816
		L165.115-92.816z M117.839-102.665c-26.113,0-47.277-7.943-47.277-17.729c0-9.793,21.165-17.729,47.277-17.729
		c26.107,0,47.276,7.936,47.276,17.729C165.115-110.609,143.946-102.665,117.839-102.665z"/>
	<path d="M153.296-47.509c2.178,0,3.94,1.762,3.94,3.939c0,2.179-1.763,3.94-3.94,3.94s-3.939-1.762-3.939-3.94
		C149.356-45.747,151.118-47.509,153.296-47.509z"/>
	<path d="M153.296-71.147c2.178,0,3.94,1.761,3.94,3.939c0,2.177-1.763,3.939-3.94,3.939s-3.939-1.762-3.939-3.939
		C149.356-69.386,151.118-71.147,153.296-71.147z"/>
	<path d="M153.296-94.786c2.178,0,3.94,1.764,3.94,3.939s-1.763,3.94-3.94,3.94s-3.939-1.765-3.939-3.94
		S151.118-94.786,153.296-94.786z"/>
</g>
<g>
	<rect x="271.242" y="-226.487" width="19.258" height="74.987"/>
	<rect x="244.341" y="-251.5" width="19.232" height="100"/>
	<rect x="217.414" y="-201.5" width="19.258" height="50"/>
	<rect x="190.5" y="-176.486" width="19.245" height="24.986"/>
</g>
<g>
	<g>
		<polygon points="442.913,-326.649 442.913,-317.255 447.442,-317.255 447.442,-331.181 434.809,-331.181 434.809,-326.649 		"/>
		<polygon points="382.379,-326.649 390.481,-326.649 390.481,-331.181 377.848,-331.181 377.848,-317.255 382.379,-317.255 		"/>
		<polygon points="382.379,-268.948 382.379,-277.825 377.848,-277.825 377.848,-264.417 390.481,-264.417 390.481,-268.948 		"/>
		<polygon points="442.913,-268.948 434.809,-268.948 434.809,-264.417 447.442,-264.417 447.442,-277.825 442.913,-277.825 		"/>
	</g>
	<g id="user-13-icon">
		<path d="M447.411-254.338c-13.553-3.123-26.168-5.86-20.061-17.381c18.598-35.06,4.932-53.809-14.707-53.809
			c-20.024,0-33.354,19.468-14.708,53.809c6.293,11.588-6.796,14.321-20.057,17.381c-13.545,3.125-12.502,1.364-12.502,14.323
			h94.538C459.914-252.974,460.957-251.213,447.411-254.338z"/>
	</g>
</g>
<g>
	<path d="M543.979-153.807c-27.787,0-50,16.96-50,38.048c0,12.5,6.284,23.659,18.52,30.625l-4.629,18.561
		c0,0,33.446-8.564,45.369-12.064c23.846-5.732,40.74-18.387,40.74-37.12C593.979-136.846,571.766-153.807,543.979-153.807z
		 M551.387-84.206c-17.426,4.857-36.11,10.209-36.11,10.209l4.629-13.92c-10.198-5.805-19.444-16.032-19.444-27.841
		c0-17.573,20.361-32.481,43.518-32.481s44.444,14.907,44.444,32.481C588.423-100.147,568.551-87.62,551.387-84.206z"/>
	<g id="user-13-icon_1_">
		<path d="M503.554-20.088c-13.552-3.123-26.168-5.86-20.06-17.381c18.598-35.06,4.932-53.809-14.707-53.809
			c-20.024,0-33.354,19.468-14.709,53.809c6.293,11.588-6.795,14.321-20.057,17.381c-13.546,3.125-12.503,1.364-12.503,14.323
			h94.538C516.057-18.724,517.1-16.963,503.554-20.088z"/>
	</g>
</g>
<g>
	<path d="M337.124-43.059h-34.656c-1.521,0-2.75,1.229-2.75,2.747c0,0.775,0.322,1.468,0.838,1.969l24.408,24.411l0.014-0.003
		c0.5,0.536,1.207,0.876,2,0.876c0.949,0,1.785-0.482,2.281-1.217c5.998-6.958,9.856-15.812,10.562-25.54
		c0.03-0.163,0.054-0.328,0.054-0.496C339.868-41.829,338.642-43.059,337.124-43.059z"/>
	<path d="M292.783-48.861h38.519l0.002-0.002c0,0,0.004,0.002,0.01,0.002c1.518,0,2.744-1.233,2.744-2.749l0,0
		c-1.36-22.174-19.104-39.912-41.274-41.277l-0.011,0.008c-1.51,0.007-2.736,1.233-2.736,2.747v38.521
		C290.036-50.095,291.265-48.861,292.783-48.861z"/>
	<path d="M313.173-16.182l-0.01-0.004c-0.004-0.007-0.007-0.013-0.01-0.016l-28.4-28.401v-0.01c-0.48-0.493-0.771-1.164-0.771-1.907
		h-0.008V-86.66v-0.003c-0.006-1.513-1.229-2.733-2.742-2.735l-0.002-0.006c-23.08,1.417-41.361,20.586-41.361,44.022
		c0,24.357,19.747,44.106,44.104,44.106c11.111,0,21.258-4.106,29.014-10.882v-0.013c0.598-0.503,0.977-1.246,0.977-2.085
		C313.962-15.004,313.662-15.684,313.173-16.182L313.173-16.182z"/>
</g>
<g>
	<path d="M407.5-141.027v20.527h6v-20.939l-3.557,3.563L407.5-141.027z M392.5-146.768v26.268h6v-29.736l-1.823-2.455L392.5-146.768
		z M377.5-133.03v12.53h7v-15.564l-4.486,5.676L377.5-133.03z M362.5-141.227v20.727h7v-21.652l-2.879-3.052L362.5-141.227z
		 M347.5-120.5h7v-12.542l-7,6.789V-120.5z M436.5-162.477v41.977h7v-41.173l-3.766-3.621L436.5-162.477z M422.5-120.5h6v-34.518
		l-6,6.12V-120.5z M428.355-182.5l7.108,6.998l-24.729,22.479L396.15-169.46l-17.098,22.333l-12.234-13.62l-19.318,19.24v9.35
		l19.061-18.975l12.888,14.354l17.079-22.321l13.711,15.425l29.892-27.26l7.37,7.39V-182.5H428.355z"/>
</g>
</svg>
