<svg xmlns="http://www.w3.org/2000/svg" xmlns:xlink="http://www.w3.org/1999/xlink" version="1.1" id="Layer_1" x="0px" y="0px" width="32px" height="32px" viewBox="0 0 32 32" enable-background="new 0 0 32 32" xml:space="preserve">
<path id="Cloud" d="M24.846,14.466c0.021-0.194,0.029-0.392,0.029-0.59c0-3.453-2.798-6.25-6.25-6.25  c-2.679,0-4.958,1.688-5.847,4.059c-0.589-0.646-1.429-1.059-2.372-1.059c-1.778,0-3.219,1.44-3.219,3.219  c0,0.21,0.022,0.414,0.062,0.613c-2.372,0.391-4.187,2.436-4.187,4.916c0,2.764,2.238,5,5,5h15.875c2.762,0,5-2.236,5-5  C28.938,16.925,27.172,14.896,24.846,14.466z"/>
</svg>