<?xml version="1.0" encoding="utf-8"?>
<!-- Generator: Adobe Illustrator 16.0.3, SVG Export Plug-In . SVG Version: 6.00 Build 0)  -->
<!DOCTYPE svg PUBLIC "-//W3C//DTD SVG 1.1//EN" "http://www.w3.org/Graphics/SVG/1.1/DTD/svg11.dtd">
<svg version="1.1" id="Layer_1" xmlns="http://www.w3.org/2000/svg" xmlns:xlink="http://www.w3.org/1999/xlink" x="0px" y="0px"
	 width="263.625px" height="300.5px" viewBox="0 -268.5 263.625 300.5" enable-background="new 0 -268.5 263.625 300.5"
	 xml:space="preserve">
<g id="data">
	<path d="M132.812-267C69.797-267,2-248.002,2-206.266v177.531C2,12.984,69.797,32,132.812,32
		c63.006,0,130.812-19.016,130.812-60.734v-177.531C263.625-248.002,195.81-267,132.812-267z M244.938-28.734
		c0,23.213-50.205,42.047-112.125,42.047c-61.93,0-112.125-18.833-112.125-42.047v-34.911
		C39.99-43.754,86.559-33.406,132.812-33.406s92.816-10.348,112.125-30.239V-28.734z M244.938-84.797H244.9
		c0,0.091,0.037,0.201,0.037,0.292c0,23.067-50.205,41.755-112.125,41.755S20.688-61.438,20.688-84.505
		c0-0.091,0.037-0.201,0.037-0.292h-0.037v-34.907C39.99-99.816,86.559-89.469,132.812-89.469s92.816-10.348,112.125-30.235V-84.797
		z M244.938-140.859H244.9c0,0.091,0.037,0.196,0.037,0.292c0,23.067-50.205,41.755-112.125,41.755S20.688-117.5,20.688-140.567
		c0-0.096,0.037-0.201,0.037-0.292h-0.037v-32.105c24.49,18.66,69.375,27.434,112.125,27.434s87.635-8.773,112.125-27.434V-140.859z
		 M132.812-164.219c-61.93,0-112.125-18.838-112.125-42.047c0-23.227,50.195-42.047,112.125-42.047
		c61.92,0,112.125,18.82,112.125,42.047C244.938-183.057,194.732-164.219,132.812-164.219z"/>
	<path d="M216.906-33.406c5.164,0,9.344,4.179,9.344,9.344s-4.18,9.344-9.344,9.344s-9.344-4.179-9.344-9.344
		S211.742-33.406,216.906-33.406z"/>
	<path d="M216.906-89.469c5.164,0,9.344,4.179,9.344,9.344s-4.18,9.344-9.344,9.344s-9.344-4.179-9.344-9.344
		S211.742-89.469,216.906-89.469z"/>
	<path d="M216.906-145.531c5.164,0,9.344,4.184,9.344,9.344s-4.18,9.344-9.344,9.344s-9.344-4.184-9.344-9.344
		S211.742-145.531,216.906-145.531z"/>
</g>
</svg>
