<?xml version="1.0" encoding="utf-8"?>
<!-- Generator: Adobe Illustrator 16.0.3, SVG Export Plug-In . SVG Version: 6.00 Build 0)  -->
<!DOCTYPE svg PUBLIC "-//W3C//DTD SVG 1.1//EN" "http://www.w3.org/Graphics/SVG/1.1/DTD/svg11.dtd">
<svg version="1.1" id="Layer_1" xmlns="http://www.w3.org/2000/svg" xmlns:xlink="http://www.w3.org/1999/xlink" x="0px" y="0px"
	 width="189.312px" height="214.821px" viewBox="0 85.679 189.312 214.821" enable-background="new 0 85.679 189.312 214.821"
	 xml:space="preserve">
<g id="data">
	<path d="M95.656,85.679C50.54,85.679,2,99.281,2,129.162v127.105c0,29.869,48.54,43.483,93.656,43.483
		c45.109,0,93.655-13.614,93.655-43.483V129.163C189.312,99.281,140.76,85.679,95.656,85.679z M175.933,256.267
		c0,16.62-35.944,30.104-80.276,30.104c-44.339,0-80.276-13.482-80.276-30.104v-24.994c13.819,14.241,47.161,21.649,80.276,21.649
		c33.114,0,66.451-7.408,80.276-21.649V256.267L175.933,256.267z M175.933,216.129h-0.026c0,0.064,0.026,0.144,0.026,0.209
		c0,16.515-35.944,29.895-80.276,29.895c-44.333,0-80.276-13.38-80.276-29.895c0-0.065,0.026-0.145,0.026-0.209H15.38v-24.992
		c13.819,14.238,47.161,21.646,80.276,21.646c33.114,0,66.451-7.408,80.276-21.646V216.129L175.933,216.129z M175.933,175.99h-0.026
		c0,0.065,0.026,0.141,0.026,0.209c0,16.516-35.944,29.895-80.276,29.895c-44.333,0-80.276-13.379-80.276-29.895
		c0-0.068,0.026-0.144,0.026-0.209H15.38v-22.985c17.534,13.359,49.669,19.642,80.276,19.642s62.743-6.281,80.276-19.642V175.99z
		 M95.656,159.266c-44.34,0-80.277-13.487-80.277-30.104c0-16.629,35.938-30.104,80.277-30.104
		c44.332,0,80.276,13.474,80.276,30.104C175.933,145.778,139.988,159.266,95.656,159.266z"/>
	<path d="M155.863,252.922c3.697,0,6.69,2.992,6.69,6.689c0,3.699-2.993,6.69-6.69,6.69s-6.689-2.991-6.689-6.69
		C149.174,255.914,152.166,252.922,155.863,252.922z"/>
	<path d="M155.863,212.783c3.697,0,6.69,2.992,6.69,6.69c0,3.697-2.993,6.689-6.69,6.689s-6.689-2.992-6.689-6.689
		C149.174,215.775,152.166,212.783,155.863,212.783z"/>
	<path d="M155.863,172.646c3.697,0,6.69,2.995,6.69,6.689s-2.993,6.69-6.69,6.69s-6.689-2.996-6.689-6.69
		S152.166,172.646,155.863,172.646z"/>
</g>
</svg>
