<svg xmlns="http://www.w3.org/2000/svg" xmlns:xlink="http://www.w3.org/1999/xlink" version="1.0" x="0px" y="0px" width="100px" height="100px" viewBox="0 0 100 100" enable-background="new 0 0 100 100" xml:space="preserve">
<g id="Captions">
</g>
<g id="Your_Icon">
	<path fill="#000000" d="M36.581,15.432v24.032H46.94c1.737-1.486,3.968-2.32,6.271-2.32c5.317,0,9.643,4.325,9.643,9.642   c0,5.317-4.326,9.642-9.643,9.642c-2.303,0-4.534-0.835-6.271-2.32H36.581v30.461H70.43V15.432H36.581z M41.903,22.794   c-1.126,0-2.04-0.914-2.04-2.041c0-1.127,0.914-2.04,2.04-2.04c1.127,0,2.041,0.914,2.041,2.04   C43.943,21.88,43.03,22.794,41.903,22.794z M41.903,81.287c-1.126,0-2.04-0.914-2.04-2.04c0-1.127,0.914-2.04,2.04-2.04   c1.127,0,2.041,0.914,2.041,2.04C43.943,80.374,43.03,81.287,41.903,81.287z M55.806,68.363v5.602h-4.601v-5.602   c-1.051-0.729-1.741-1.943-1.741-3.32c0-2.232,1.809-4.041,4.041-4.041c2.232,0,4.041,1.809,4.041,4.041   C57.546,66.42,56.857,67.634,55.806,68.363z M65.108,81.287c-1.127,0-2.04-0.914-2.04-2.04c0-1.127,0.914-2.04,2.04-2.04   c1.127,0,2.041,0.914,2.041,2.04C67.149,80.374,66.235,81.287,65.108,81.287z M65.108,22.794c-1.127,0-2.04-0.914-2.04-2.041   c0-1.127,0.914-2.04,2.04-2.04c1.127,0,2.041,0.914,2.041,2.04C67.149,21.88,66.235,22.794,65.108,22.794z"/>
	<path fill="#000000" d="M53.211,39.544c-2.099,0-3.988,0.894-5.311,2.321H11.921C9.203,41.865,7,44.068,7,46.786   c0,2.718,2.203,4.921,4.921,4.921H47.9c1.323,1.427,3.212,2.32,5.311,2.32c3.999,0,7.242-3.242,7.242-7.241   C60.453,42.786,57.21,39.544,53.211,39.544z"/>
</g>
</svg>