<?xml version="1.0" encoding="utf-8"?>
<!-- Generator: Adobe Illustrator 16.0.3, SVG Export Plug-In . SVG Version: 6.00 Build 0)  -->
<!DOCTYPE svg PUBLIC "-//W3C//DTD SVG 1.1//EN" "http://www.w3.org/Graphics/SVG/1.1/DTD/svg11.dtd">
<svg version="1.1" id="Layer_1" xmlns="http://www.w3.org/2000/svg" xmlns:xlink="http://www.w3.org/1999/xlink" x="0px" y="0px"
	 width="94.557px" height="96.425px" viewBox="3.041 0 94.557 96.425" enable-background="new 3.041 0 94.557 96.425"
	 xml:space="preserve">
<g>
	<polygon points="80.577,9.791 80.577,19.185 85.107,19.185 85.107,5.259 72.473,5.259 72.473,9.791 	"/>
	<polygon points="20.043,9.791 28.146,9.791 28.146,5.259 15.512,5.259 15.512,19.185 20.043,19.185 	"/>
	<polygon points="20.043,67.491 20.043,58.614 15.512,58.614 15.512,72.023 28.146,72.023 28.146,67.491 	"/>
	<polygon points="80.577,67.491 72.473,67.491 72.473,72.023 85.107,72.023 85.107,58.614 80.577,58.614 	"/>
</g>
<g id="user-13-icon">
	<path d="M85.075,82.102c-13.552-3.123-26.168-5.861-20.06-17.381c18.598-35.06,4.932-53.809-14.707-53.809
		c-20.025,0-33.355,19.468-14.708,53.809c6.293,11.588-6.796,14.321-20.057,17.381C1.998,85.227,3.041,83.466,3.041,96.425h94.538
		C97.578,83.466,98.621,85.227,85.075,82.102z"/>
</g>
</svg>
