<svg xmlns="http://www.w3.org/2000/svg" xmlns:xlink="http://www.w3.org/1999/xlink" version="1.1" x="0px" y="0px" width="100px" height="100px" viewBox="0 0 100 100" enable-background="new 0 0 100 100" xml:space="preserve">
<g id="Layer_1" display="none">
	
		</g>
<g id="Layer_2">
	<path d="M90.114,90.176c0,4.448-3.605,8.055-8.054,8.055c-4.45,0-8.054-3.606-8.054-8.055c0-4.781,4.664-10.27,6.689-13.972   c1.069-1.954,0.927-3.063,1.364-3.063s0.33,1.297,1.359,3.335C85.321,80.24,90.114,85.381,90.114,90.176z"/>
	<path d="M81.921,38.926H58.409c-3.006,0-4.434-1.81-4.434-4.752V21.829h-3.94v-8.38c1.518-0.757,2.724-1.844,3.436-3.135   c5.62,0.5,9.958,3.414,15.037,3.414c3.379,0,6.119-2.74,6.119-6.121c0-3.379-2.74-6.12-6.119-6.12   c-4.676,0-9.413,2.272-15.195,3.163c-1.46-2.377-4.615-4.026-8.284-4.026c-3.798,0-7.056,1.764-8.441,4.278   c-5.62-0.499-9.958-3.415-15.036-3.415c-3.379,0-6.121,2.741-6.121,6.12c0,3.381,2.741,6.121,6.121,6.121   c4.676,0,9.415-2.271,15.193-3.161c0.725,1.177,1.867,2.175,3.28,2.884v8.378H35.39v12.276c0,2.839-0.716,4.821-4.444,4.821h-20.31   v17.998h21.778c0,0,6.104,1.23,12.304,1.23c6.199,0,12.304-1.23,12.304-1.23h6.741c2.768,0.026,7.566-0.147,7.566,2.696   l0.355,10.537c3.814,1.753,16.336,1.26,19.155-0.242l0.04-23.309C90.88,41.584,87.978,38.926,81.921,38.926z"/>
</g>
</svg>