<?xml version="1.0" encoding="utf-8"?>
<!-- Generator: Adobe Illustrator 16.0.3, SVG Export Plug-In . SVG Version: 6.00 Build 0)  -->
<!DOCTYPE svg PUBLIC "-//W3C//DTD SVG 1.1//EN" "http://www.w3.org/Graphics/SVG/1.1/DTD/svg11.dtd">
<svg version="1.1" id="Layer_1" xmlns="http://www.w3.org/2000/svg" xmlns:xlink="http://www.w3.org/1999/xlink" x="0px" y="0px"
	 width="172.459px" height="148.425px" viewBox="-72.459 0 172.459 148.425" enable-background="new -72.459 0 172.459 148.425"
	 xml:space="preserve">
<path d="M50,0.383c-27.787,0-50,16.96-50,38.048c0,12.5,6.284,23.659,18.519,30.625l-4.629,18.56c0,0,33.447-8.563,45.37-12.063
	C83.105,69.82,100,57.165,100,38.432C100,17.344,77.787,0.383,50,0.383z M57.408,69.984c-17.426,4.857-36.11,10.209-36.11,10.209
	l4.629-13.92C15.729,60.468,6.482,50.241,6.482,38.432C6.482,20.859,26.844,5.951,50,5.951s44.445,14.907,44.445,32.481
	C94.445,54.043,74.572,66.57,57.408,69.984z"/>
<g id="user-13-icon">
	<path d="M9.575,134.102c-13.552-3.123-26.168-5.861-20.06-17.381c18.598-35.06,4.932-53.809-14.707-53.809
		c-20.024,0-33.354,19.468-14.708,53.809c6.293,11.588-6.796,14.321-20.057,17.381c-13.546,3.125-12.503,1.364-12.503,14.323h94.538
		C22.078,135.466,23.121,137.227,9.575,134.102z"/>
</g>
</svg>
