<svg xmlns="http://www.w3.org/2000/svg" xmlns:xlink="http://www.w3.org/1999/xlink" version="1.1" id="Layer_1" x="0px" y="0px" width="100px" height="100px" viewBox="0 0 100 100" enable-background="new 0 0 100 100" xml:space="preserve">
<path d="M76.846,0H22.358c-2.627,0-4.756,2.129-4.756,4.756v90.489c0,2.626,2.129,4.756,4.756,4.756h54.488  c2.626,0,4.756-2.13,4.756-4.756V4.756C81.602,2.129,79.472,0,76.846,0z M59.089,84.375H41.036  c-4.319-2.907-7.161-7.84-7.161-13.438s2.842-10.53,7.161-13.438h18.053c4.319,2.907,7.161,7.84,7.161,13.438  S63.408,81.468,59.089,84.375z M46.752,52.02c-0.969-1.365-0.845-3.269,0.378-4.492c1.225-1.223,3.126-1.346,4.49-0.378  L46.752,52.02z M52.451,47.981c0.97,1.365,0.846,3.267-0.377,4.49s-3.126,1.348-4.491,0.379L52.451,47.981z M59.089,43.125H41.036  c-4.319-2.907-7.161-7.84-7.161-13.438s2.842-10.53,7.161-13.438h18.053c4.319,2.907,7.161,7.84,7.161,13.438  S63.408,40.218,59.089,43.125z"/>
<g>
	<rect x="42.562" y="21.75" width="2.125" height="8.75"/>
	<path d="M52.521,36.459v3.666h-4.917v-3.666c0,0,0.708-1.584,2.458-1.584C51.812,34.875,52.521,36.459,52.521,36.459z"/>
	<rect x="55.437" y="21.75" width="2.125" height="8.75"/>
</g>
<g>
	<rect x="42.562" y="63" width="2.125" height="8.75"/>
	<path d="M52.521,77.709v3.666h-4.917v-3.666c0,0,0.708-1.584,2.458-1.584C51.812,76.125,52.521,77.709,52.521,77.709z"/>
	<rect x="55.437" y="63" width="2.125" height="8.75"/>
</g>
</svg>