<?xml version="1.0" encoding="utf-8"?>
<!-- Generator: Adobe Illustrator 16.0.0, SVG Export Plug-In . SVG Version: 6.00 Build 0)  -->
<!DOCTYPE svg PUBLIC "-//W3C//DTD SVG 1.1//EN" "http://www.w3.org/Graphics/SVG/1.1/DTD/svg11.dtd">
<svg version="1.1" id="Layer_1" xmlns="http://www.w3.org/2000/svg" xmlns:xlink="http://www.w3.org/1999/xlink" x="0px" y="0px"
	 width="100px" height="75.564px" viewBox="0 0 100 75.564" enable-background="new 0 0 100 75.564" xml:space="preserve">
<ellipse fill="none" cx="91.023" cy="26.475" rx="5.234" ry="5.246"/>
<ellipse fill="none" cx="8.976" cy="26.475" rx="5.234" ry="5.246"/>
<path fill="#0D0D0E" d="M69.336,28.175c6.102,0,11.052-4.95,11.052-11.054c0-6.103-4.95-11.054-11.052-11.054
	s-11.054,4.951-11.054,11.054C58.282,23.225,63.234,28.175,69.336,28.175z M69.336,7.99c5.042,0,9.131,4.09,9.131,9.131
	s-4.089,9.132-9.131,9.132c-5.043,0-9.134-4.091-9.134-9.132S64.293,7.99,69.336,7.99z"/>
<circle fill="#0D0D0E" cx="69.336" cy="17.121" r="3.604"/>
<path fill="#0D0D0E" d="M53.25,0v75.564H100V0H53.25z M69.336,5.106c6.633,0,12.013,5.382,12.013,12.015s-5.38,12.015-12.013,12.015
	c-6.635,0-12.016-5.382-12.016-12.015S62.701,5.106,69.336,5.106z M76.626,72.47c-10.813,0-19.587-8.768-19.587-19.586
	c0-10.817,8.773-19.586,19.587-19.586c10.816,0,19.585,8.769,19.585,19.586C96.211,63.703,87.442,72.47,76.626,72.47z
	 M91.023,31.721c-2.889,0-5.234-2.349-5.234-5.246c0-2.898,2.346-5.247,5.234-5.247c2.891,0,5.234,2.349,5.234,5.247
	C96.258,29.372,93.914,31.721,91.023,31.721z"/>
<path fill="#0D0D0E" d="M76.626,34.522c-10.139,0-18.363,8.223-18.363,18.362s8.225,18.363,18.363,18.363
	c10.138,0,18.361-8.224,18.361-18.363S86.764,34.522,76.626,34.522z M76.626,68.799c-8.787,0-15.915-7.126-15.915-15.915
	c0-8.788,7.128-15.914,15.915-15.914s15.913,7.126,15.913,15.914C92.539,61.673,85.413,68.799,76.626,68.799z"/>
<circle fill="#0D0D0E" cx="76.626" cy="52.884" r="7.651"/>
<path fill="#0D0D0E" d="M23.375,34.522c-10.14,0-18.362,8.223-18.362,18.362s8.223,18.363,18.362,18.363
	c10.137,0,18.363-8.224,18.363-18.363S33.512,34.522,23.375,34.522z M23.375,68.799c-8.788,0-15.914-7.126-15.914-15.915
	c0-8.788,7.126-15.914,15.914-15.914c8.786,0,15.915,7.126,15.915,15.914C39.29,61.673,32.161,68.799,23.375,68.799z"/>
<circle fill="#0D0D0E" cx="23.375" cy="52.884" r="7.651"/>
<path fill="#0D0D0E" d="M0,75.564h46.75V0H0V75.564z M23.375,72.47c-10.818,0-19.586-8.768-19.586-19.586
	c0-10.817,8.768-19.586,19.586-19.586c10.813,0,19.586,8.769,19.586,19.586C42.961,63.703,34.188,72.47,23.375,72.47z M30.665,5.106
	c6.635,0,12.015,5.382,12.015,12.015s-5.38,12.015-12.015,12.015c-6.633,0-12.014-5.382-12.014-12.015S24.032,5.106,30.665,5.106z
	 M8.976,21.229c2.89,0,5.234,2.349,5.234,5.247c0,2.897-2.344,5.246-5.234,5.246c-2.889,0-5.233-2.349-5.233-5.246
	C3.743,23.577,6.087,21.229,8.976,21.229z"/>
<circle fill="#0D0D0E" cx="30.665" cy="17.121" r="3.604"/>
<path fill="#0D0D0E" d="M30.665,28.175c6.102,0,11.054-4.95,11.054-11.054c0-6.103-4.952-11.054-11.054-11.054
	s-11.052,4.951-11.052,11.054C19.612,23.225,24.562,28.175,30.665,28.175z M30.665,7.99c5.042,0,9.133,4.09,9.133,9.131
	s-4.09,9.132-9.133,9.132c-5.042,0-9.13-4.091-9.13-9.132S25.623,7.99,30.665,7.99z"/>
</svg>
