<svg xmlns="http://www.w3.org/2000/svg" xmlns:xlink="http://www.w3.org/1999/xlink" version="1.1" id="Your_Icon" x="0px" y="0px" width="100px" height="100px" viewBox="0 0 100 100" enable-background="new 0 0 100 100" xml:space="preserve">
<path d="M60,60.473V81h6V60.061l-3.557,3.563L60,60.473z M45,54.732V81h6V51.264l-1.823-2.455L45,54.732z M30,68.47V81h7V65.436  l-4.486,5.676L30,68.47z M15,60.273V81h7V59.348l-2.879-3.052L15,60.273z M0,81h7V68.458l-7,6.789V81z M89,39.023V81h7V39.827  l-3.766-3.621L89,39.023z M75,81h6V46.482l-6,6.12V81z M80.855,19l7.109,6.998l-24.73,22.479L48.65,32.04L31.553,54.373  l-12.234-13.62L0,59.993v9.35l19.061-18.975l12.887,14.354l17.08-22.32l13.71,15.425l29.892-27.26l7.37,7.39V19H80.855z"/>
</svg>