<svg xmlns="http://www.w3.org/2000/svg" xmlns:xlink="http://www.w3.org/1999/xlink" version="1.1" id="Layer_1" x="0px" y="0px" width="100px" height="100px" viewBox="0 0 100 100" enable-background="new 0 0 100 100" xml:space="preserve">
<path d="M25,8v80h50V8H25z M43.359,66.75v-17.5h13.554v17.5H43.359z M56.913,68v17.5H43.359V68H56.913z M56.913,28.625v17.219  H43.359V28.625H56.913z M43.359,27.375V11.406h13.554v15.969H43.359z M71.375,45.844H58.163V28.625h13.212V45.844z M42.109,45.844  H28.625V28.625h13.484V45.844z M27.5,49.25h14.609v17.5H27.5V49.25z M58.163,49.25H72.5v17.5H58.163V49.25z M71.375,27.375H58.163  V11.406h13.212V27.375z M42.109,11.406v15.969H28.625V11.406H42.109z M27.5,68h14.609v17.5H27.5V68z M58.163,85.5V68H72.5v17.5  H58.163z"/>
<rect x="26.296" y="48.75" width="1.204" height="2.5"/>
<rect x="72.5" y="48.75" width="1.279" height="2.5"/>
</svg>