<svg xmlns="http://www.w3.org/2000/svg" xmlns:xlink="http://www.w3.org/1999/xlink" version="1.1" x="0px" y="0px" width="100px" height="100px" viewBox="0 0 100 100" enable-background="new 0 0 100 100" xml:space="preserve">
<g id="Captions" display="none">
	<rect x="-192" display="inline" width="185" height="99"/>
	<rect y="-36" display="inline" width="100" height="30"/>
	<text transform="matrix(1 0 0 1 66 -19.5)" display="inline" fill="#000000" font-family="'Helvetica'" font-size="2.4">http://thenounproject.com</text>
	<text transform="matrix(1 0 0 1 7.166 -24.5)" display="inline"><tspan x="0" y="0" fill="#000000" font-family="'Helvetica-Bold'" font-size="6.1578">The Noun Project</tspan><tspan x="1.12" y="4.8" fill="#000000" font-family="'Helvetica-Bold'" font-size="4">Icon Template</tspan></text>
	
		<text transform="matrix(1 0 0 1 -178.5 10.5)" display="inline" fill="#000000" font-family="'Helvetica-Bold'" font-size="6.1578">Reminders</text>
	<line display="inline" fill="#000000" stroke="#FFFFFF" stroke-miterlimit="10" x1="8" y1="-14.5" x2="18" y2="-14.5"/>
	<line display="inline" fill="#000000" stroke="#FFFFFF" stroke-miterlimit="10" x1="-179" y1="16.5" x2="-162" y2="16.5"/>
	<g display="inline">
		<g>
			<g>
				<rect x="-170.802" y="31.318" fill="#000000" width="8.721" height="8.642"/>
				<path fill="#000000" d="M-164.455,42.312h4.747v-4.703h-4.747V42.312z M-159.266,42.749h-5.63V37.17h5.63V42.749      L-159.266,42.749z M-166.221,44.062h8.279v-8.203h-8.279V44.062L-166.221,44.062z M-157.5,44.5h-9.163v-9.079h9.163V44.5      L-157.5,44.5z"/>
				<polygon fill="#000000" points="-166.149,44.133 -166.292,43.991 -158.013,35.787 -157.871,35.929     "/>
			</g>
		</g>
	</g>
	<rect x="-179" y="58" display="inline" fill="none" width="35" height="32.5"/>
	<text transform="matrix(1 0 0 1 -179 60.1543)" display="inline"><tspan x="0" y="0" fill="#000000" font-family="'Helvetica-Bold'" font-size="3">Strokes</tspan><tspan x="0" y="5" fill="#000000" font-family="'Helvetica'" font-size="2.4">Try to keep strokes at 4px</tspan><tspan x="0" y="10" fill="#000000" font-family="'Helvetica'" font-size="2.4">Minimum stroke weight is 2px</tspan><tspan x="0" y="14.5" fill="#000000" font-family="'Helvetica'" font-size="2.4">For thicker strokes use even </tspan><tspan x="0" y="17.5" fill="#000000" font-family="'Helvetica'" font-size="2.4">numbers: 6px, 8px etc.</tspan><tspan x="0" y="22" fill="#000000" font-family="'Helvetica-Bold'" font-size="2.4">Remember to expand strokes </tspan><tspan x="0" y="25" fill="#000000" font-family="'Helvetica-Bold'" font-size="2.4">before saving as an SVG </tspan></text>
	<rect x="-136.5" y="58" display="inline" fill="none" width="35" height="32.5"/>
	<text transform="matrix(1 0 0 1 -136.5 60.1543)" display="inline"><tspan x="0" y="0" fill="#000000" font-family="'Helvetica-Bold'" font-size="3">Size</tspan><tspan x="0" y="5" fill="#000000" font-family="'Helvetica'" font-size="2.4">Cannot be wider or taller than </tspan><tspan x="0" y="8.5" fill="#000000" font-family="'Helvetica'" font-size="2.4">100px (artboard size)</tspan><tspan x="0" y="13.5" fill="#000000" font-family="'Helvetica'" font-size="2.4">Scale your icon to fill as much of </tspan><tspan x="0" y="16.5" fill="#000000" font-family="'Helvetica'" font-size="2.4">the artboard as possible</tspan></text>
	<rect x="-94" y="58" display="inline" fill="none" width="35" height="32.5"/>
	<text transform="matrix(1 0 0 1 -94 60.1543)" display="inline"><tspan x="0" y="0" fill="#000000" font-family="'Helvetica-Bold'" font-size="3">Ungroup</tspan><tspan x="0" y="5" fill="#000000" font-family="'Helvetica'" font-size="2.4">If your design has more than one </tspan><tspan x="0" y="8" fill="#000000" font-family="'Helvetica'" font-size="2.4">shape, make sure to ungroup</tspan></text>
	<rect x="-50" y="58" display="inline" fill="none" width="35" height="32.5"/>
	<text transform="matrix(1 0 0 1 -50 60.1543)" display="inline"><tspan x="0" y="0" fill="#000000" font-family="'Helvetica-Bold'" font-size="3">Save as</tspan><tspan x="0" y="5" fill="#000000" font-family="'Helvetica'" font-size="2.4">Save as .SVG and make sure </tspan><tspan x="0" y="8" fill="#000000" font-family="'Helvetica'" font-size="2.4">&#8220;Use Artboards&#8221; is checked</tspan></text>
	
		<text transform="matrix(1.0074 0 0 1 -125.542 30.5933)" display="inline" fill="#000000" font-family="'Helvetica'" font-size="2.5731">100px</text>
	
		<text transform="matrix(1.0074 0 0 1 -41 39)" display="inline" fill="#000000" font-family="'Helvetica-Bold'" font-size="5.1462">.SVG</text>
	<rect x="-126.514" y="34.815" display="inline" fill="#000000" width="10.261" height="10.185"/>
	<rect x="-126.477" y="31.766" display="inline" fill="#000000" width="0.522" height="2.337"/>
	<rect x="-116.813" y="31.766" display="inline" fill="#000000" width="0.523" height="2.337"/>
	<rect x="-127" y="32.337" display="inline" fill="#000000" width="11.233" height="0.572"/>
	<g display="inline">
		<rect x="-83.805" y="33.844" fill="#000000" width="10.305" height="10.156"/>
		<rect x="-76.809" y="28.707" fill="#000000" width="3.308" height="3.261"/>
	</g>
	<rect x="-178.5" y="22.5" display="inline" fill="#000000" stroke="#FFFFFF" stroke-miterlimit="10" width="30" height="30"/>
	<rect x="-136.5" y="22.5" display="inline" fill="#000000" stroke="#FFFFFF" stroke-miterlimit="10" width="30" height="30"/>
	<rect x="-93.5" y="22.5" display="inline" fill="#000000" stroke="#FFFFFF" stroke-miterlimit="10" width="30" height="30"/>
	<rect x="-49.5" y="22.5" display="inline" fill="#000000" stroke="#FFFFFF" stroke-miterlimit="10" width="30" height="30"/>
</g>
<g id="Your_Icon">
	<g>
		<path fill="#000000" d="M90.386,86.93c-27.743,7.855-55.487-7.855-83.231,0c0-21.822,0-43.643,0-65.463    c27.744-7.855,55.488,7.855,83.231,0C90.386,43.287,90.386,65.107,90.386,86.93z"/>
	</g>
	<polygon fill="#000000" points="89.918,21.466 97.399,22.869 89.918,24.272  "/>
	<polygon fill="#000000" points="89.918,24.272 97.399,25.675 89.918,27.078  "/>
	<polygon fill="#000000" points="89.918,27.078 97.399,28.48 89.918,29.883  "/>
	<polygon fill="#000000" points="89.918,29.883 97.399,31.286 89.918,32.688  "/>
	<polygon fill="#000000" points="89.918,32.688 97.399,34.091 89.918,35.494  "/>
	<polygon fill="#000000" points="89.918,35.494 97.399,36.897 89.918,38.3  "/>
	<polygon fill="#000000" points="89.918,38.3 97.399,39.703 89.918,41.105  "/>
	<polygon fill="#000000" points="89.918,41.105 97.399,42.508 89.918,43.91  "/>
	<polygon fill="#000000" points="89.918,43.91 97.399,45.313 89.918,46.717  "/>
	<polygon fill="#000000" points="89.918,46.717 97.399,48.119 89.918,49.521  "/>
	<polygon fill="#000000" points="89.918,49.521 97.399,50.926 89.918,52.328  "/>
	<polygon fill="#000000" points="89.918,52.328 97.399,53.73 89.918,55.133  "/>
	<polygon fill="#000000" points="89.918,55.133 97.399,56.535 89.918,57.939  "/>
	<polygon fill="#000000" points="89.918,57.939 97.399,59.342 89.918,60.744  "/>
	<polygon fill="#000000" points="89.918,60.744 97.399,62.146 89.918,63.549  "/>
	<polygon fill="#000000" points="89.918,63.549 97.399,64.951 89.918,66.355  "/>
	<polygon fill="#000000" points="89.918,66.355 97.399,67.758 89.918,69.16  "/>
	<polygon fill="#000000" points="89.918,69.16 97.399,70.563 89.918,71.967  "/>
	<polygon fill="#000000" points="89.918,71.967 97.399,73.369 89.918,74.771  "/>
	<polygon fill="#000000" points="89.918,74.771 97.399,76.174 89.918,77.576  "/>
	<polygon fill="#000000" points="89.918,77.576 97.399,78.98 89.918,80.383  "/>
	<polygon fill="#000000" points="89.918,80.383 97.399,81.785 89.918,83.188  "/>
	<polygon fill="#000000" points="89.918,83.188 97.399,84.592 89.918,85.994  "/>
	<polygon fill="#000000" points="9.025,85.527 1.543,84.125 9.025,82.721  "/>
	<polygon fill="#000000" points="9.025,82.721 1.543,81.318 9.025,79.916  "/>
	<polygon fill="#000000" points="9.025,79.916 1.543,78.514 9.025,77.111  "/>
	<polygon fill="#000000" points="9.025,77.111 1.543,75.707 9.025,74.305  "/>
	<polygon fill="#000000" points="9.025,74.305 1.543,72.902 9.025,71.5  "/>
	<polygon fill="#000000" points="9.025,71.5 1.543,70.096 9.025,68.693  "/>
	<polygon fill="#000000" points="9.025,68.693 1.543,67.291 9.025,65.889  "/>
	<polygon fill="#000000" points="9.025,65.889 1.543,64.484 9.025,63.082  "/>
	<polygon fill="#000000" points="9.025,63.082 1.543,61.68 9.025,60.277  "/>
	<polygon fill="#000000" points="9.025,60.277 1.543,58.875 9.025,57.473  "/>
	<polygon fill="#000000" points="9.025,57.473 1.543,56.068 9.025,54.666  "/>
	<polygon fill="#000000" points="9.025,54.666 1.543,53.264 9.025,51.861  "/>
	<polygon fill="#000000" points="9.025,51.861 1.543,50.459 9.025,49.055  "/>
	<polygon fill="#000000" points="9.025,49.055 1.543,47.652 9.025,46.25  "/>
	<polygon fill="#000000" points="9.025,46.25 1.543,44.847 9.025,43.443  "/>
	<polygon fill="#000000" points="9.025,43.443 1.543,42.041 9.025,40.639  "/>
	<polygon fill="#000000" points="9.025,40.639 1.543,39.236 9.025,37.833  "/>
	<polygon fill="#000000" points="9.025,37.833 1.543,36.43 9.025,35.027  "/>
	<polygon fill="#000000" points="9.025,35.027 1.543,33.625 9.025,32.222  "/>
	<polygon fill="#000000" points="9.025,32.222 1.543,30.819 9.025,29.417  "/>
	<polygon fill="#000000" points="9.025,29.417 1.543,28.014 9.025,26.611  "/>
	<polygon fill="#000000" points="9.025,26.611 1.543,25.208 9.025,23.805  "/>
	<polygon fill="#000000" points="9.025,23.805 1.543,22.403 9.025,21  "/>
</g>
</svg>