<svg xmlns="http://www.w3.org/2000/svg" xmlns:xlink="http://www.w3.org/1999/xlink" version="1.1" id="Layer_1" x="0px" y="0px" width="100px" height="100px" viewBox="0 0 100 100" enable-background="new 0 0 100 100" xml:space="preserve">
<path fill="#000000" d="M40.172,14.033c0,0-10.503,7.022-12.915,21.377c-2.176,12.953,0,52.538,0,52.538h4.202L30.37,45.738  c0-19.84,12.448-28.593,12.449-28.593L40.172,14.033z"/>
<path fill="#000000" d="M27.257,40.175"/>
<ellipse fill="#000000" cx="38.013" cy="91.721" rx="18.848" ry="7.353"/>
<g>
	<path fill="#000000" d="M80.329,24.8c-0.107-0.137-0.231-0.256-0.368-0.365C79.95,24.423,64.244,9.442,53.923,9.364l-7.448-7.469   c0,0-1.556-2.178-4.435,0l-3.558,2.703c0,0-2.9,2.355-0.333,5.856c1.563,2.132,6.147,7.391,6.147,7.391S45.08,39.909,55.01,45.476   c0.086,0.055,0.179,0.106,0.274,0.152c0,0,0,0,0.001,0c2.789,1.341,9.369-1.116,15.734-6.069   C78.172,33.992,82.34,27.385,80.329,24.8z M70.059,38.324c-5.263,4.096-10.73,5.875-12.212,3.974   c-1.479-1.903,1.587-6.766,6.852-10.862c5.265-4.097,10.731-5.876,12.212-3.974C78.391,29.364,75.323,34.226,70.059,38.324z"/>
</g>
</svg>