<svg xmlns="http://www.w3.org/2000/svg" xmlns:xlink="http://www.w3.org/1999/xlink" version="1.1" id="Layer_1" x="0px" y="0px" width="91.852px" height="100px" viewBox="0 0 91.852 100" enable-background="new 0 0 91.852 100" xml:space="preserve">
<path d="M61.28,17.712c0.065-0.583,0.105-1.174,0.105-1.775c0-8.741-7.086-15.827-15.826-15.827c-8.664,0-15.69,6.96-15.817,15.592  h-0.067v5.217h23.879v4.818H29.676v5.105h23.879v4.818H29.676v5.104h23.879v4.817H29.676v10.725h0.065  c0,0.062-0.009,0.121-0.009,0.182c0,8.743,7.086,15.829,15.828,15.829c8.74,0,15.826-7.086,15.826-15.829  c0-0.601-0.04-1.19-0.105-1.774V17.712z"/>
<path d="M70.84,56.357V45.476c0-1.656-1.342-2.998-2.998-2.998s-2.998,1.342-2.998,2.998v10.882c0,10.594-8.62,19.213-19.215,19.213  s-19.213-8.619-19.213-19.213V45.476c0-1.656-1.342-2.998-2.998-2.998c-1.656,0-2.999,1.342-2.999,2.998v10.882  c0,12.823,9.627,23.434,22.032,25.002v12.645H27.139V100h37.476v-5.996H48.448V81.405C61.026,79.998,70.84,69.305,70.84,56.357z"/>
</svg>