<svg xmlns="http://www.w3.org/2000/svg" xmlns:xlink="http://www.w3.org/1999/xlink" version="1.0" id="Layer_1" x="0px" y="0px" width="100px" height="100px" viewBox="0 0 100 100" enable-background="new 0 0 100 100" xml:space="preserve">
<path fill="#000000" d="M25.563,87.98c0.557-0.95,1.821-1.755,1.821-1.755s-0.512-1.133-0.252-1.411  c0.255-0.274,6.14-3.387,6.818-3.894c0,0,4.455-2.685,4.183-2.729c-0.269-0.044-12.437-0.289-12.437-0.289s-0.465,0.502-0.296,0.657  c0.164,0.152,0.93,0.553,1.288,1.505c0.356,0.953,0.05,1.39-0.351,2.157c-0.399,0.761-1.04,1.214-2.422,0.938  c-0.748-0.149-1.445-0.631-1.825-1.371c-0.315-0.619-0.248-1.26,0.186-2.169c0.231-0.485,0.468-0.687,1.328-1.128  c0.856-0.446,0.425-0.793,0.305-1.11c-0.118-0.318,0.659-0.938,1.439-1.067c0.773-0.128,20.258-1.244,20.401-1.318  c0.476-0.24,0.287-3.062-0.335-3.533c-0.483-0.367-0.187-0.495-0.227-1.868c-0.039-1.27,0.081-1.692-0.065-2.227  c-0.146-0.534-0.331-0.578-0.326-1.697c0.011-1.073,0.478-5.949,0.4-6.578c-0.031-0.258-0.076-0.356-0.111-0.444  c-0.137-0.014-0.618-0.054-0.764-0.064l0,0c-0.445-0.04-0.445-0.04-0.467,0.43c-0.026,0.47-0.382,1.413-0.632,1.903  s-0.96,0.143-1.875,0.016s-0.927-0.446-0.977-0.802c-0.048-0.358,0.106-0.897-0.626-1.783c-0.729-0.883-2.7-1.165-3.081-1.311  c-0.381-0.146-1.323-0.01-1.464,0.073c-0.629,0.368-0.507,0.729-0.927,0.958c-0.419,0.233-0.806-0.218-0.715-0.647  c0.091-0.433,0.215-0.738,1.02-1.434c0.389-0.333-0.47-1.053-1.132-1.563c-0.661-0.509-0.859-0.767-1.462-1.232  c-0.175-0.135-0.77-0.687-1.918-0.722c-1.148-0.034-1.839-0.167-3.625-0.296c-1.42-0.102-2.855-0.372-2.737-0.201  c-0.278-0.409-0.988-0.992-1.693-2.346c-0.435-0.832-0.398-2.368-0.374-3.173c0.023-0.805,0.277-1.19,1.184-1.278  c0.91-0.086,4.981-0.205,4.981-0.205s13.435-0.049,14.669,0.064c1.236,0.115,2.678-0.098,2.87-0.754  c0.196-0.654-1.295-8.312-2.061-10.062c-0.473-1.082-1.33-1.308-1.455-1.357c-1.142-0.441-2.9-0.431-3.703-0.385  c-1.127,0.067-7.539,0.053-7.539-0.725c0-0.519,8.432-0.694,8.432-0.694s11.583-0.462,12.698-0.451  c0.674,0.006,2.425-0.199,2.873,0.114c0.441,0.305,0.144,0.898-0.307,0.916c-0.309,0.012-1.399,0.161-2.334,0.193  c-0.7,0.024-1.611,0.244-2.303,0.687c0,0-0.937,0.666-1.154,2.147c-0.136,0.92,0.271,1.415,3.087,9.219l0.867,1.212  c0.834,0.008,1.535,0.054,2.703,0.047c1.103-0.008,1.738-0.125,2.702-0.162c0.962-0.036,1.161-0.291,2.19,0.046  c1.104,0.362,1.258,0.237,2.019,0.941c0.832,0.773,1.28,2.867,1.192,3.277c-0.166,0.773-0.215,0.746,0.902,0.543  c1.119-0.202,1.762-0.494,1.939-0.767c0,0,0.754-0.652,0.717-1.802c-0.034-1.124,0.01-0.957-0.333-1.994  c-0.088-0.266-0.333-0.537-0.607-0.763c-0.306,0.069-0.153,0.021-0.306,0.069c-0.874,0.272-2.227,1.508-3.762,0.496  c-1.542-1.015-2.541-15.023-2.641-16.517c-0.24-3.528,2.03-14.663,3.119-18.381c0.712-2.43,1.535-4.623,2.47-5.927  c0.421-0.585,1.512-1.534,2.308-1.723c0.795-0.189,2.934,0.08,3.674,0.648c0.962,0.74,1.066,2.009,1.036,2.96  c-0.03,0.888-0.536,3.385-0.627,4.675c-0.115,1.649-0.948,4.694-1.068,5.825c-0.12,1.128-1.412,10.883-0.86,15.779  c0.216,1.916,2.236,8.894,1.404,9.67c-0.252,0.23-0.713,0.519-1.261,0.814c0,0,0.257,6.105,0.233,6.909  c-0.022,0.804-0.039,0.792-1.273,1.681c-1.131,0.812-4.926,2.55-5.811,3.5c-0.666,0.722,0.379,0.581-0.128,1.031  c-1.035,0.921-0.511,0.812-4.964-0.048c-0.842-0.164-1.122-0.46-2.1,0.31c-0.895,0.712-1.131,1.611-1.686,2.178  c-0.477,0.495-0.965,0.838-1.163,0.858c0,0-0.199,5.887-0.289,7.466c-0.095,1.653-0.644,0.877-0.751,2.023  c-0.121,1.232,0.011,1.848,0.011,1.848s-0.284,0.923-0.849,1.64c-0.56,0.717-0.388,0.516-0.189,1.525  c0.197,1.011,0.891,0.933,1.273,1.187c0.387,0.252,22.479,3.822,22.479,3.822l0.631,1.244c0,0-0.608,0.846-0.441,1.001  c0.166,0.152,0.823,0.335,1.438,0.901c1.239,1.152,0.022,3.226-0.845,3.776c-1.611,1.022-3.41-0.879-3.704-1.993  c-0.245-0.916,0.061-1.18,0.622-1.898c0.564-0.717,0.987-0.839,0.987-0.839l-0.487-0.338c-5.233-0.784-4.86-0.772-6.179-0.855  c-1.011-0.062-2.745-0.453-2.745-0.453c-1.44-0.213-1.792-0.262-2.712-0.314c-0.862-0.049-0.862,0.022-6.012-0.311  c3.824,2.889,3.892,2.747,4.689,3.42c1.214,1.027,6.435,5.085,6.435,5.085s-0.638,1.228-0.146,1.584  c0.499,0.356,1.572,1.718,1.6,2.479c0.023,0.592-0.643,1.609-1.214,2.113c-0.568,0.504-0.788,1.013-2.06,0.65  c-0.849-0.241-1.482-0.688-1.929-1.205c-0.229-0.261-0.805-1.131-0.282-2.659c0.24-0.705,2.069-1.939,1.14-2.354  c-0.645-0.287-13.087-6.586-13.614-6.904c-0.317-0.194-0.583,0.362-0.511,0.842c0.069,0.48,0.062,2.316-0.09,2.482  c-0.155,0.169-0.786,0.715-1.936,0.438c-0.763-0.185-1.098-0.71-1.098-0.71s0.289-3.915,0.053-3.785  c-0.805,0.439-12.151,4.37-12.151,4.37l-4.556,1.695c0,0,1.042,0.391,1.668,1.385s0.832,1.734,0.296,2.886  c-0.427,0.92-1.618,1.478-2.848,1.646c-1.022,0.144-1.897-0.74-2.393-1.094C25.263,90.711,24.959,89.007,25.563,87.98z"/>
</svg>