<svg xmlns="http://www.w3.org/2000/svg" xmlns:xlink="http://www.w3.org/1999/xlink" version="1.1" x="0px" y="0px" width="100px" height="100px" viewBox="0 0 100 100" enable-background="new 0 0 100 100" xml:space="preserve">
<g id="Captions">
</g>
<g id="Your_Icon">
	<path d="M87.694,53.866H15.335c-5.402,0-9.8,4.734-9.8,10.548c-2.796,2.762-4.534,6.604-4.534,10.846   c0,4.383,1.848,8.33,4.805,11.105c0.874,3.962,3.836,7.064,7.557,7.888h76.306c4.464-0.988,7.827-5.246,7.827-10.337V64.414   C97.495,58.601,93.102,53.866,87.694,53.866z M16.249,86.942c-6.457,0-11.688-5.226-11.688-11.683   c0-6.452,5.232-11.679,11.688-11.679c6.452,0,11.684,5.227,11.684,11.679C27.933,81.717,22.701,86.942,16.249,86.942z    M83.011,65.157c0,0.693-0.563,1.256-1.256,1.256c-0.346,0-0.657-0.141-0.889-0.366c-0.226-0.226-0.366-0.543-0.366-0.89v-6.275   c0-0.692,0.562-1.255,1.255-1.255c0.347,0,0.657,0.14,0.89,0.366c0.226,0.226,0.366,0.542,0.366,0.889V65.157z M87.278,65.157   c0,0.693-0.563,1.256-1.255,1.256c-0.347,0-0.658-0.141-0.89-0.366c-0.226-0.226-0.366-0.543-0.366-0.89v-6.275   c0-0.692,0.563-1.255,1.256-1.255c0.346,0,0.657,0.14,0.889,0.366c0.225,0.226,0.366,0.542,0.366,0.889V65.157z M91.626,65.157   c0,0.693-0.562,1.256-1.255,1.256c-0.348,0-0.658-0.141-0.889-0.366c-0.226-0.226-0.366-0.543-0.366-0.89v-6.275   c0-0.692,0.562-1.255,1.255-1.255c0.346,0,0.657,0.14,0.888,0.366c0.227,0.226,0.367,0.542,0.367,0.889V65.157z"/>
	<polygon points="74.536,46.183 74.536,49.699 30.897,49.699 30.897,46.183 42.948,46.183 45.506,43.625 47.33,43.625 47.33,2.232    58.104,2.232 58.104,43.625 59.928,43.625 62.485,46.183  "/>
</g>
</svg>